<?xml version="1.0" encoding="UTF-8"?> <svg xmlns="http://www.w3.org/2000/svg" id="Layer_2" data-name="Layer 2" viewBox="0 0 17.18 3.71"><defs><style> .cls-1 { fill: #131313; stroke-width: 0px; } </style></defs><g id="Layer_1-2" data-name="Layer 1"><g><g><polyline class="cls-1" points=".91 2.73 1.82 1.82 1.82 1.82 1.82 1.82"></polyline><polyline class="cls-1" points="1.82 1.82 2.73 .91 2.73 .91 1.82 0 1.82 0 .91 .91 .91 .91 0 1.82 0 1.82 0 2.73 0 2.73 0 3.65 .91 2.73 .91 2.73"></polyline><polygon class="cls-1" points="1.82 1.82 1.82 2.73 1.82 3.65 1.82 3.65 2.73 3.65 2.73 3.65 3.65 3.65 3.65 2.73 3.65 1.82 1.82 1.82"></polygon></g><g><path class="cls-1" d="M5.52,3.65h-.84V.08h.84v3.57Z"></path><path class="cls-1" d="M7.79,3.65l-.8-2.86v2.86h-.82V.08h1.33l.68,2.56L8.88.08h1.31v3.57h-.82V.79l-.8,2.86h-.79Z"></path><path class="cls-1" d="M12.79,1.11c-.08-.27-.35-.42-.7-.42-.33,0-.57.12-.57.34,0,.18.16.31.41.36l.49.1c.58.12,1.3.3,1.3,1.04s-.75,1.17-1.5,1.17c-.92,0-1.51-.45-1.64-1.23h.84c.09.37.39.55.83.55.29,0,.61-.09.61-.39,0-.23-.27-.34-.67-.43l-.43-.09c-.58-.12-1.11-.4-1.11-1.04C10.66.36,11.44.02,12.14.02s1.37.3,1.49,1.09h-.83Z"></path><path class="cls-1" d="M14.93.08v2.13c0,.52.12.81.71.81s.69-.33.69-.86V.08h.84v2.01c0,1.1-.42,1.62-1.54,1.62s-1.55-.41-1.55-1.59V.08h.84Z"></path></g></g></g></svg> 